<svg width="33" height="33" viewBox="0 0 33 33" fill="none" xmlns="http://www.w3.org/2000/svg">
  <circle cx="16.5" cy="16.5" r="13.5" fill="#FFDAB9"/>
  <path d="M13.184 16.0553C15.368 13.8846 19.0828 14.8921 19.8707 17.8688L20.3908 19.8337C21.1787 22.8104 18.4488 25.5238 15.477 24.7178L13.5152 24.1858C10.5433 23.3798 9.55844 19.6589 11.7424 17.4882L13.184 16.0553Z" fill="white" fill-opacity="0.7"/>
  <path d="M13.684 14.0553C15.368 12.8846 18.0828 13.8921 18.8707 16.8688L19.3908 18.8337C20.1787 21.8104 17.4488 24.5238 14.477 23.7178L12.5152 23.1858C9.54333 22.3798 8.55844 18.6589 10.7424 16.4882L12.184 15.0553Z" fill="white" fill-opacity="0.7"/>
  <path d="M14.184 13.0553C15.368 11.8846 17.0828 12.8921 17.8707 15.8688L18.3908 17.8337C19.1787 20.8104 16.4488 23.5238 13.477 22.7178L11.5152 22.1858C8.54333 21.3798 7.55844 17.6589 9.7424 15.4882L11.184 14.0553Z" fill="white" fill-opacity="0.7"/>
  <path d="M12.184 12.0553C13.368 10.8846 16.0828 11.8921 16.8707 14.8688L17.3908 16.8337C18.1787 19.8104 15.4488 22.5238 12.477 21.7178L10.5152 21.1858C7.54333 20.3798 6.55844 16.6589 8.7424 14.4882L10.184 13.0553Z" fill="white" fill-opacity="0.7"/>
  <path d="M15.184 17.0553C17.368 15.8846 21.0828 16.8921 21.8707 19.8688L22.3908 21.8337C23.1787 24.8104 20.4488 27.5238 17.477 26.7178L15.5152 26.1858C12.5433 25.3798 11.5584 21.6589 13.7424 19.4882L15.184 18.0553Z" fill="white" fill-opacity="0.7"/>
</svg>
